<svg xmlns="http://www.w3.org/2000/svg" xmlns:xlink="http://www.w3.org/1999/xlink" viewBox="0 0 48 48" width="48px" height="48px"><defs><linearGradient id="X5bzKAc070tbMPa_pXRQaa" x1="38.02" x2="34.93" y1="4.96" y2="15.33" gradientUnits="userSpaceOnUse"><stop offset=".06" stop-color="#f2fcff"/><stop offset=".24" stop-color="#e2f8fc"/><stop offset=".61" stop-color="#c7f3f9"/><stop offset=".81" stop-color="#c3f5f1"/><stop offset="1" stop-color="#bffae5"/></linearGradient><linearGradient id="X5bzKAc070tbMPa_pXRQab" x1="38.07" x2="34.85" y1="4.64" y2="15.5" gradientUnits="userSpaceOnUse"><stop offset=".06" stop-color="#effbff"/><stop offset=".3" stop-color="#d6f5fb"/><stop offset=".61" stop-color="#bbf0f8"/><stop offset=".78" stop-color="#b7f2f0"/><stop offset="1" stop-color="#b1f9df"/></linearGradient><linearGradient id="X5bzKAc070tbMPa_pXRQac" x1="38.11" x2="34.77" y1="4.4" y2="15.63" gradientUnits="userSpaceOnUse"><stop offset=".06" stop-color="#ecfbff"/><stop offset=".34" stop-color="#c9f3fa"/><stop offset=".61" stop-color="#aeeef7"/><stop offset=".76" stop-color="#aaf0ef"/><stop offset=".99" stop-color="#a2f7da"/><stop offset="1" stop-color="#a2f8d9"/></linearGradient><linearGradient id="X5bzKAc070tbMPa_pXRQad" x1="38.12" x2="34.71" y1="4.24" y2="15.71" gradientUnits="userSpaceOnUse"><stop offset=".06" stop-color="#eafaff"/><stop offset=".38" stop-color="#bdf0f8"/><stop offset=".61" stop-color="#a2ebf5"/><stop offset=".75" stop-color="#9eeded"/><stop offset=".96" stop-color="#95f5d8"/><stop offset="1" stop-color="#94f7d4"/></linearGradient><linearGradient id="X5bzKAc070tbMPa_pXRQae" x1="38.11" x2="34.66" y1="4.15" y2="15.75" gradientUnits="userSpaceOnUse"><stop offset=".06" stop-color="#e7f9ff"/><stop offset=".4" stop-color="#b1eef7"/><stop offset=".61" stop-color="#96e9f4"/><stop offset=".74" stop-color="#92ebec"/><stop offset=".93" stop-color="#89f2d7"/><stop offset="1" stop-color="#86f6ce"/></linearGradient><linearGradient id="X5bzKAc070tbMPa_pXRQaf" x1="38.07" x2="34.63" y1="4.14" y2="15.74" gradientUnits="userSpaceOnUse"><stop offset=".06" stop-color="#e4f9fe"/><stop offset=".42" stop-color="#a4ebf6"/><stop offset=".61" stop-color="#89e6f3"/><stop offset=".73" stop-color="#85e8eb"/><stop offset=".9" stop-color="#7cefd6"/><stop offset="1" stop-color="#77f4c8"/></linearGradient><linearGradient id="X5bzKAc070tbMPa_pXRQag" x1="38.02" x2="34.61" y1="4.21" y2="15.68" gradientUnits="userSpaceOnUse"><stop offset=".06" stop-color="#e1f8fe"/><stop offset=".06" stop-color="#dff7fd"/><stop offset=".44" stop-color="#98e9f5"/><stop offset=".61" stop-color="#7de4f2"/><stop offset=".72" stop-color="#79e6ea"/><stop offset=".88" stop-color="#71ecd5"/><stop offset="1" stop-color="#69f3c2"/></linearGradient><linearGradient id="X5bzKAc070tbMPa_pXRQah" x1="37.94" x2="34.6" y1="4.35" y2="15.58" gradientUnits="userSpaceOnUse"><stop offset=".06" stop-color="#dff7fe"/><stop offset=".11" stop-color="#d3f4fc"/><stop offset=".45" stop-color="#8ce6f3"/><stop offset=".61" stop-color="#71e1f0"/><stop offset=".71" stop-color="#6de3e8"/><stop offset=".87" stop-color="#64ead3"/><stop offset="1" stop-color="#5bf2bd"/></linearGradient><linearGradient id="X5bzKAc070tbMPa_pXRQai" x1="37.84" x2="34.61" y1="4.57" y2="15.43" gradientUnits="userSpaceOnUse"><stop offset=".06" stop-color="#dcf7fe"/><stop offset=".15" stop-color="#c6f2fb"/><stop offset=".46" stop-color="#7fe4f2"/><stop offset=".61" stop-color="#64dfef"/><stop offset=".71" stop-color="#60e1e7"/><stop offset=".85" stop-color="#57e8d2"/><stop offset="1" stop-color="#4cf1b7"/></linearGradient><linearGradient id="X5bzKAc070tbMPa_pXRQaj" x1="37.71" x2="34.63" y1="4.87" y2="15.24" gradientUnits="userSpaceOnUse"><stop offset=".06" stop-color="#d9f6fe"/><stop offset=".18" stop-color="#baeffa"/><stop offset=".47" stop-color="#73e1f1"/><stop offset=".61" stop-color="#58dcee"/><stop offset=".7" stop-color="#54dee6"/><stop offset=".84" stop-color="#4be5d1"/><stop offset="1" stop-color="#3ef0b1"/></linearGradient><linearGradient id="X5bzKAc070tbMPa_pXRQak" x1="18.46" x2="27.33" y1="6.13" y2="47.08" xlink:href="#X5bzKAc070tbMPa_pXRQaa"/><linearGradient id="X5bzKAc070tbMPa_pXRQal" x1="18.42" x2="27.33" y1="5.96" y2="47.07" xlink:href="#X5bzKAc070tbMPa_pXRQab"/><linearGradient id="X5bzKAc070tbMPa_pXRQam" x1="18.39" x2="27.32" y1="5.84" y2="47.03" xlink:href="#X5bzKAc070tbMPa_pXRQac"/><linearGradient id="X5bzKAc070tbMPa_pXRQan" x1="18.37" x2="27.32" y1="5.77" y2="47.06" xlink:href="#X5bzKAc070tbMPa_pXRQad"/><linearGradient id="X5bzKAc070tbMPa_pXRQao" x1="18.36" x2="27.32" y1="5.73" y2="47.1" xlink:href="#X5bzKAc070tbMPa_pXRQae"/><linearGradient id="X5bzKAc070tbMPa_pXRQap" x1="18.35" x2="27.32" y1="5.73" y2="47.14" xlink:href="#X5bzKAc070tbMPa_pXRQaf"/><linearGradient id="X5bzKAc070tbMPa_pXRQaq" x1="18.36" x2="27.32" y1="5.77" y2="47.17" xlink:href="#X5bzKAc070tbMPa_pXRQag"/><linearGradient id="X5bzKAc070tbMPa_pXRQar" x1="18.37" x2="27.32" y1="5.85" y2="47.17" xlink:href="#X5bzKAc070tbMPa_pXRQah"/><linearGradient id="X5bzKAc070tbMPa_pXRQas" x1="18.39" x2="27.31" y1="5.97" y2="47.15" xlink:href="#X5bzKAc070tbMPa_pXRQai"/><linearGradient id="X5bzKAc070tbMPa_pXRQat" x1="18.43" x2="27.3" y1="6.13" y2="47.09" xlink:href="#X5bzKAc070tbMPa_pXRQaj"/><linearGradient id="X5bzKAc070tbMPa_pXRQau" x1="23.83" x2="24.15" y1="26.73" y2="46" gradientUnits="userSpaceOnUse"><stop offset="0" stop-color="#f8fdff"/><stop offset="1" stop-color="#e2fbff"/></linearGradient><linearGradient id="X5bzKAc070tbMPa_pXRQav" x1="23.83" x2="24.15" y1="27.12" y2="45.58" gradientUnits="userSpaceOnUse"><stop offset="0" stop-color="#f6fdff"/><stop offset="1" stop-color="#dcfaff"/></linearGradient><linearGradient id="X5bzKAc070tbMPa_pXRQaw" x1="23.84" x2="24.14" y1="27.5" y2="45.16" gradientUnits="userSpaceOnUse"><stop offset="0" stop-color="#f5fcff"/><stop offset="1" stop-color="#d5f9ff"/></linearGradient><linearGradient id="X5bzKAc070tbMPa_pXRQax" x1="23.85" x2="24.14" y1="27.89" y2="44.74" gradientUnits="userSpaceOnUse"><stop offset="0" stop-color="#f3fcff"/><stop offset="1" stop-color="#cff9ff"/></linearGradient><linearGradient id="X5bzKAc070tbMPa_pXRQay" x1="23.86" x2="24.13" y1="28.28" y2="44.32" gradientUnits="userSpaceOnUse"><stop offset="0" stop-color="#f2fcff"/><stop offset="1" stop-color="#c8f8ff"/></linearGradient><linearGradient id="X5bzKAc070tbMPa_pXRQaz" x1="23.87" x2="24.12" y1="28.66" y2="43.91" gradientUnits="userSpaceOnUse"><stop offset="0" stop-color="#f0fbfe"/><stop offset="1" stop-color="#c2f7ff"/></linearGradient><linearGradient id="X5bzKAc070tbMPa_pXRQaA" x1="23.87" x2="24.12" y1="29.05" y2="43.49" gradientUnits="userSpaceOnUse"><stop offset="0" stop-color="#effbfe"/><stop offset="1" stop-color="#bbf6ff"/></linearGradient><linearGradient id="X5bzKAc070tbMPa_pXRQaB" x1="23.88" x2="24.11" y1="29.43" y2="43.07" gradientUnits="userSpaceOnUse"><stop offset="0" stop-color="#edfbfe"/><stop offset="1" stop-color="#b5f6ff"/></linearGradient><linearGradient id="X5bzKAc070tbMPa_pXRQaC" x1="23.89" x2="24.11" y1="29.82" y2="42.65" gradientUnits="userSpaceOnUse"><stop offset="0" stop-color="#ecfafe"/><stop offset="1" stop-color="#aef5ff"/></linearGradient><linearGradient id="X5bzKAc070tbMPa_pXRQaD" x1="23.9" x2="24.1" y1="30.21" y2="42.23" gradientUnits="userSpaceOnUse"><stop offset="0" stop-color="#eafafe"/><stop offset="1" stop-color="#a8f4ff"/></linearGradient><linearGradient id="X5bzKAc070tbMPa_pXRQaE" x1="17.61" x2="27.29" y1="1.23" y2="36.45" gradientUnits="userSpaceOnUse"><stop offset="0" stop-color="#fee6e6"/><stop offset=".18" stop-color="#fcdee2"/><stop offset=".44" stop-color="#f9c8d7"/><stop offset=".6" stop-color="#f7b8d0"/><stop offset="1" stop-color="#feaaaa"/></linearGradient><linearGradient id="X5bzKAc070tbMPa_pXRQaF" x1="17.6" x2="27.3" y1="1.21" y2="36.47" gradientUnits="userSpaceOnUse"><stop offset="0" stop-color="#fee1e1"/><stop offset=".15" stop-color="#fcd9dd"/><stop offset=".38" stop-color="#f9c3d3"/><stop offset=".6" stop-color="#f5a8c6"/><stop offset="1" stop-color="#fe9797"/></linearGradient><linearGradient id="X5bzKAc070tbMPa_pXRQaG" x1="17.6" x2="27.3" y1="1.19" y2="36.49" gradientUnits="userSpaceOnUse"><stop offset="0" stop-color="#fddbdb"/><stop offset=".14" stop-color="#fbd3d7"/><stop offset=".34" stop-color="#f9bdcc"/><stop offset=".59" stop-color="#f49abc"/><stop offset=".6" stop-color="#f498bb"/><stop offset="1" stop-color="#fe8484"/></linearGradient><linearGradient id="X5bzKAc070tbMPa_pXRQaH" x1="17.59" x2="27.3" y1="1.18" y2="36.5" gradientUnits="userSpaceOnUse"><stop offset="0" stop-color="#fdd6d6"/><stop offset=".12" stop-color="#fbced2"/><stop offset=".31" stop-color="#f8b8c7"/><stop offset=".53" stop-color="#f395b7"/><stop offset=".6" stop-color="#f289b1"/><stop offset="1" stop-color="#fd7171"/></linearGradient><linearGradient id="X5bzKAc070tbMPa_pXRQaI" x1="17.59" x2="27.31" y1="1.18" y2="36.5" gradientUnits="userSpaceOnUse"><stop offset="0" stop-color="#fdd0d0"/><stop offset=".11" stop-color="#fbc8cc"/><stop offset=".28" stop-color="#f8b2c1"/><stop offset=".49" stop-color="#f38fb0"/><stop offset=".6" stop-color="#f079a6"/><stop offset="1" stop-color="#fd5e5e"/></linearGradient><linearGradient id="X5bzKAc070tbMPa_pXRQaJ" x1="17.59" x2="27.31" y1="1.18" y2="36.5" gradientUnits="userSpaceOnUse"><stop offset="0" stop-color="#fccbcb"/><stop offset=".11" stop-color="#fac3c7"/><stop offset=".26" stop-color="#f8adbc"/><stop offset=".45" stop-color="#f38aac"/><stop offset=".6" stop-color="#ef699c"/><stop offset="1" stop-color="#fd4c4c"/></linearGradient><linearGradient id="X5bzKAc070tbMPa_pXRQaK" x1="17.59" x2="27.3" y1="1.18" y2="36.5" gradientUnits="userSpaceOnUse"><stop offset="0" stop-color="#fcc5c5"/><stop offset=".1" stop-color="#fabdc1"/><stop offset=".24" stop-color="#f7a7b6"/><stop offset=".42" stop-color="#f384a5"/><stop offset=".6" stop-color="#ed5991"/><stop offset="1" stop-color="#fd3939"/></linearGradient><linearGradient id="X5bzKAc070tbMPa_pXRQaL" x1="17.6" x2="27.3" y1="1.19" y2="36.49" gradientUnits="userSpaceOnUse"><stop offset="0" stop-color="#fcc0c0"/><stop offset=".09" stop-color="#fab8bc"/><stop offset=".23" stop-color="#f7a2b1"/><stop offset=".4" stop-color="#f27fa0"/><stop offset=".59" stop-color="#eb4e89"/><stop offset=".6" stop-color="#eb4a87"/><stop offset="1" stop-color="#fc2626"/></linearGradient><linearGradient id="X5bzKAc070tbMPa_pXRQaM" x1="17.6" x2="27.3" y1="1.21" y2="36.47" gradientUnits="userSpaceOnUse"><stop offset="0" stop-color="#fbbaba"/><stop offset=".09" stop-color="#f9b2b6"/><stop offset=".22" stop-color="#f79cab"/><stop offset=".37" stop-color="#f2799a"/><stop offset=".55" stop-color="#eb4883"/><stop offset=".6" stop-color="#ea3a7c"/><stop offset="1" stop-color="#fc1313"/></linearGradient><linearGradient id="X5bzKAc070tbMPa_pXRQaN" x1="17.61" x2="27.29" y1="1.23" y2="36.45" gradientUnits="userSpaceOnUse"><stop offset="0" stop-color="#fbb5b5"/><stop offset=".08" stop-color="#f9adb1"/><stop offset=".21" stop-color="#f697a6"/><stop offset=".35" stop-color="#f27495"/><stop offset=".52" stop-color="#eb437e"/><stop offset=".6" stop-color="#e82a72"/><stop offset="1" stop-color="#fc0000"/></linearGradient></defs><path fill="url(#X5bzKAc070tbMPa_pXRQaa)" d="m39,19l-7-5v-6c0-.55.45-1,1-1h5c.55,0,1,.45,1,1v11Z"/><path fill="url(#X5bzKAc070tbMPa_pXRQab)" d="m32.22,13.89v-5.71c0-.53.43-.96.96-.96h4.64c.53,0,.96.43.96.96v10.39l-6.56-4.68Z"/><path fill="url(#X5bzKAc070tbMPa_pXRQac)" d="m32.44,13.77v-5.41c0-.5.41-.91.91-.91h4.29c.5,0,.91.41.91.91v9.78l-6.11-4.37Z"/><path fill="url(#X5bzKAc070tbMPa_pXRQad)" d="m32.67,13.66v-5.12c0-.48.39-.87.87-.87h3.93c.48,0,.87.39.87.87v9.17l-5.67-4.05Z"/><path fill="url(#X5bzKAc070tbMPa_pXRQae)" d="m32.89,13.54v-4.83c0-.45.37-.82.82-.82h3.57c.45,0,.82.37.82.82v8.56l-5.22-3.73Z"/><path fill="url(#X5bzKAc070tbMPa_pXRQaf)" d="m33.11,13.43v-4.54c0-.43.35-.78.78-.78h3.22c.43,0,.78.35.78.78v7.95l-4.78-3.41Z"/><path fill="url(#X5bzKAc070tbMPa_pXRQag)" d="m33.33,13.31v-4.24c0-.41.33-.74.74-.74h2.86c.41,0,.74.33.74.74v7.34l-4.33-3.1Z"/><path fill="url(#X5bzKAc070tbMPa_pXRQah)" d="m33.56,13.2v-3.95c0-.38.31-.69.69-.69h2.51c.38,0,.69.31.69.69v6.73l-3.89-2.78Z"/><path fill="url(#X5bzKAc070tbMPa_pXRQai)" d="m33.78,13.09v-3.66c0-.36.29-.65.65-.65h2.15c.36,0,.65.29.65.65v6.12l-3.44-2.46Z"/><path fill="url(#X5bzKAc070tbMPa_pXRQaj)" d="m34,12.97v-3.37c0-.33.27-.6.6-.6h1.79c.33,0,.6.27.6.6v5.51l-3-2.14Z"/><g><path fill="url(#X5bzKAc070tbMPa_pXRQak)" d="m24,6L6,23v17c0,2.21,1.79,4,4,4h28c2.21,0,4-1.79,4-4v-17L24,6Z"/><path fill="url(#X5bzKAc070tbMPa_pXRQal)" d="m24,6.61l16.83,15.9s.72.7.72.74v16.19c0,1.96-1.59,3.95-3.56,3.95,0,.09-2.44.17-2.53.17H10.51c-1.12,0-2.43-.55-3.11-1.33-.56-.63-.95-1.46-.95-2.39v-16.64L24,6.61Z"/><path fill="url(#X5bzKAc070tbMPa_pXRQam)" d="m24,7.22l16.44,15.52s.68.67.68.74v15.39c0,1.72-1.39,3.91-3.11,3.91,0,.18-2.22.33-2.4.33H11.02c-.98,0-2.48-.51-3.11-1.16-.56-.59-1.02-1.36-1.02-2.28v-16.29L24,7.22Z"/><path fill="url(#X5bzKAc070tbMPa_pXRQan)" d="m24,7.83l16.04,15.15c.07.07.63.65.63.74v14.58c0,1.47-1.19,3.86-2.67,3.86,0,.27-2,.5-2.27.5H11.53c-.84,0-2.54-.46-3.11-.99s-1.08-1.26-1.08-2.17v-15.93L24,7.83Z"/><path fill="url(#X5bzKAc070tbMPa_pXRQao)" d="m24,8.45l15.64,14.78c.09.09.58.62.58.75v13.77c0,1.23-.99,3.82-2.22,3.82,0,.36-1.78.66-2.14.66H12.04c-.7,0-2.7-.32-3.11-.83-.67-.38-1.15-1.16-1.15-2.05v-15.57l16.22-15.32Z"/><path fill="url(#X5bzKAc070tbMPa_pXRQap)" d="m24,9.06l15.25,14.4c.12.11.53.59.53.75v12.97c0,.98-.8,3.77-1.78,3.77,0,.46-1.55.83-2.01.83H12.55c-.56,0-2.78-.26-3.11-.66-.7-.3-1.22-1.06-1.22-1.94v-15.22l15.78-14.9Z"/><path fill="url(#X5bzKAc070tbMPa_pXRQaq)" d="m24,9.67l14.85,14.03c.14.13.48.56.48.76v12.16c0,.74-.6,3.73-1.33,3.73,0,.55-1.33.99-1.88.99H13.06c-.42,0-2.86-.19-3.1-.5-.73-.23-1.29-.96-1.29-1.83v-14.86l15.33-14.48Z"/><path fill="url(#X5bzKAc070tbMPa_pXRQar)" d="m24,10.28l14.46,13.65c.17.16.43.54.43.76v11.36c0,.49-.4,3.68-.89,3.68,0,.64-1.11,1.16-1.75,1.16H13.57c-.28,0-2.94-.13-3.1-.33-.76-.15-1.35-.86-1.35-1.71v-14.5l14.89-14.06Z"/><path fill="url(#X5bzKAc070tbMPa_pXRQas)" d="m24,10.89l14.06,13.28c.19.18.38.51.38.77v10.55c0,.25-.2,3.63-.44,3.63,0,.73-.89,1.32-1.62,1.32H14.07c-.14,0-3.02-.06-3.1-.17-.79-.08-1.42-.76-1.42-1.6v-14.15l14.44-13.64Z"/><path fill="url(#X5bzKAc070tbMPa_pXRQat)" d="m10,38.51v-13.79l14-13.22,13.67,12.91c.21.2.33.48.33.77v13.33c0,.82-.67,1.49-1.49,1.49H11.49c-.82,0-1.49-.67-1.49-1.49Z"/></g><g><path fill="url(#X5bzKAc070tbMPa_pXRQau)" d="m20.02,28h7.96c1.12,0,2.02.91,2.02,2.02v13.98h-12v-13.98c0-1.12.91-2.02,2.02-2.02Z"/><path fill="url(#X5bzKAc070tbMPa_pXRQav)" d="m20.18,28.33h7.64c1.02,0,1.84.83,1.84,1.84v13.49h-11.33v-13.49c0-1.02.83-1.84,1.84-1.84Z"/><path fill="url(#X5bzKAc070tbMPa_pXRQaw)" d="m20.33,28.67h7.33c.92,0,1.67.75,1.67,1.67v13h-10.67v-13c0-.92.75-1.67,1.67-1.67Z"/><path fill="url(#X5bzKAc070tbMPa_pXRQax)" d="m20.49,29h7.02c.82,0,1.49.67,1.49,1.49v12.51h-10v-12.51c0-.82.67-1.49,1.49-1.49Z"/><path fill="url(#X5bzKAc070tbMPa_pXRQay)" d="m20.64,29.33h6.71c.72,0,1.31.59,1.31,1.31v12.02h-9.33v-12.02c0-.72.59-1.31,1.31-1.31Z"/><path fill="url(#X5bzKAc070tbMPa_pXRQaz)" d="m20.8,29.67h6.4c.63,0,1.13.51,1.13,1.13v11.53h-8.67v-11.53c0-.63.51-1.13,1.13-1.13Z"/><path fill="url(#X5bzKAc070tbMPa_pXRQaA)" d="m20.96,30h6.09c.53,0,.96.43.96.96v11.04h-8v-11.04c0-.53.43-.96.96-.96Z"/><path fill="url(#X5bzKAc070tbMPa_pXRQaB)" d="m21.11,30.33h5.78c.43,0,.78.35.78.78v10.55h-7.33v-10.55c0-.43.35-.78.78-.78Z"/><path fill="url(#X5bzKAc070tbMPa_pXRQaC)" d="m21.27,30.67h5.46c.33,0,.6.27.6.6v10.07h-6.67v-10.07c0-.33.27-.6.6-.6Z"/><path fill="url(#X5bzKAc070tbMPa_pXRQaD)" d="m21,41v-9.58c0-.23.19-.42.42-.42h5.15c.23,0,.42.19.42.42v9.58h-6Z"/></g><g><path fill="url(#X5bzKAc070tbMPa_pXRQaE)" d="m44.53,26.98c-.6,0-1.2-.21-1.68-.65L24,9.24,5.15,26.33c-1.02.93-2.6.85-3.53-.17-.93-1.02-.85-2.6.17-3.53L22.32,4.01c.95-.86,2.41-.86,3.36,0l20.53,18.62c1.02.93,1.1,2.51.17,3.53-.49.54-1.17.82-1.85.82Z"/><path fill="url(#X5bzKAc070tbMPa_pXRQaF)" d="m44.53,26.81c-.56,0-1.12-.2-1.57-.6L24,9.01,5.04,26.21c-.96.86-2.43.79-3.3-.16-.87-.95-.79-2.43.16-3.3L22.43,4.13c.89-.81,2.25-.81,3.14,0l20.53,18.62c.95.87,1.03,2.34.16,3.3-.46.51-1.09.77-1.73.77Z"/><path fill="url(#X5bzKAc070tbMPa_pXRQaG)" d="m44.53,26.65c-.52,0-1.04-.19-1.45-.56L24,8.79,4.93,26.08c-.89.8-2.26.74-3.06-.15-.8-.89-.74-2.26.15-3.06L22.54,4.26c.83-.75,2.09-.75,2.91,0l20.53,18.62c.89.8.95,2.17.15,3.06-.43.47-1.02.71-1.61.71Z"/><path fill="url(#X5bzKAc070tbMPa_pXRQaH)" d="m44.53,26.48c-.48,0-.96-.17-1.34-.52L24,8.56,4.81,25.96c-.82.74-2.08.68-2.83-.14s-.68-2.08.14-2.83L22.66,4.38c.76-.69,1.93-.69,2.69,0l20.53,18.62c.82.74.88,2.01.14,2.83-.39.44-.94.66-1.48.66Z"/><path fill="url(#X5bzKAc070tbMPa_pXRQaI)" d="m44.53,26.31c-.44,0-.88-.16-1.23-.48L24,8.34,4.7,25.84c-.75.68-1.91.62-2.59-.13-.68-.75-.62-1.91.13-2.59L22.77,4.5c.7-.63,1.76-.63,2.46,0l20.53,18.62c.75.68.81,1.84.13,2.59-.36.4-.86.6-1.36.6Z"/><path fill="url(#X5bzKAc070tbMPa_pXRQaJ)" d="m44.53,26.15c-.4,0-.8-.14-1.12-.43L24,8.11,4.59,25.71c-.68.62-1.74.57-2.35-.11-.62-.68-.57-1.74.11-2.35L22.88,4.63c.64-.58,1.6-.58,2.24,0l20.53,18.62c.68.62.73,1.67.11,2.35-.33.36-.78.55-1.24.55Z"/><path fill="url(#X5bzKAc070tbMPa_pXRQaK)" d="m44.53,25.98c-.36,0-.72-.13-1.01-.39L24,7.89,4.48,25.59c-.61.56-1.56.51-2.12-.1-.56-.61-.51-1.56.1-2.12L22.99,4.75c.57-.52,1.44-.52,2.02,0l20.53,18.62c.61.56.66,1.51.1,2.12-.3.33-.7.49-1.11.49Z"/><path fill="url(#X5bzKAc070tbMPa_pXRQaL)" d="m44.53,25.81c-.32,0-.64-.11-.9-.35L24,7.66,4.37,25.47c-.55.49-1.39.45-1.88-.09-.49-.55-.45-1.39.09-1.88L23.1,4.87c.51-.46,1.28-.46,1.79,0l20.53,18.62c.55.49.59,1.34.09,1.88-.26.29-.63.44-.99.44Z"/><path fill="url(#X5bzKAc070tbMPa_pXRQaM)" d="m44.53,25.65c-.28,0-.56-.1-.78-.3L24,7.44,4.25,25.34c-.48.43-1.21.4-1.65-.08-.43-.48-.4-1.22.08-1.65L23.22,5c.44-.4,1.12-.4,1.57,0l20.53,18.62c.48.43.51,1.17.08,1.65-.23.25-.55.38-.86.38Z"/><path fill="url(#X5bzKAc070tbMPa_pXRQaN)" d="m44.53,25.48c-.24,0-.48-.09-.67-.26L24,7.21,4.14,25.22c-.41.37-1.04.34-1.41-.07-.37-.41-.34-1.04.07-1.41L23.33,5.12c.38-.35.96-.35,1.34,0l20.53,18.62c.41.37.44,1,.07,1.41-.2.22-.47.33-.74.33Z"/></g></svg>